<?xml version="1.0" standalone="no"?>
<!DOCTYPE svg PUBLIC "-//W3C//DTD SVG 20010904//EN"
 "http://www.w3.org/TR/2001/REC-SVG-20010904/DTD/svg10.dtd">
<svg version="1.0" xmlns="http://www.w3.org/2000/svg"
 width="1024.000000pt" height="1024.000000pt" viewBox="0 0 1024.000000 1024.000000"
 preserveAspectRatio="xMidYMid meet">
<metadata>
Created by potrace 1.14, written by Peter Selinger 2001-2017
</metadata>
<g transform="translate(0.000000,1024.000000) scale(0.100000,-0.100000)"
fill="#000000" stroke="none">
<path d="M640 5120 l0 -5120 640 0 640 0 0 320 0 320 -320 0 -320 0 0 4480 0
4480 2887 0 2886 0 -6 -1280 -5 -1280 959 0 959 0 0 -640 0 -640 320 0 320 0
0 1275 0 1275 -320 0 -320 0 0 -315 0 -315 -642 2 -643 3 -3 634 c-2 501 0
636 10 643 7 4 151 8 321 8 l307 0 0 315 0 315 -320 0 -320 0 0 320 0 320
-3515 0 -3515 0 0 -5120z"/>
<path d="M8330 8643 l0 -313 315 0 315 0 0 310 0 309 -315 3 -315 3 0 -312z"/>
<path d="M3840 8000 l0 -320 -320 0 -320 0 0 -640 0 -640 318 -2 317 -3 3
-317 2 -318 640 0 640 0 2 318 3 317 318 3 317 2 -2 643 -3 642 -317 3 -318 2
0 315 0 315 -640 0 -640 0 0 -320z m640 -640 l0 -320 -320 0 -320 0 0 320 0
320 320 0 320 0 0 -320z"/>
<path d="M5760 4480 l0 -1280 640 0 640 0 0 320 0 320 320 0 320 0 0 320 0
320 320 0 320 0 0 640 0 640 -1280 0 -1280 0 0 -1280z m1280 320 l0 -320 -320
0 -320 0 0 320 0 320 320 0 320 0 0 -320z"/>
<path d="M2558 3528 c-4 -1192 -3 -1596 6 -1605 9 -10 213 -11 964 -6 l952 6
0 319 0 318 320 0 320 0 0 320 0 320 -320 0 -320 0 0 320 0 320 -320 0 -320 0
0 320 0 320 -320 0 -320 0 0 320 0 320 -319 0 -318 0 -5 -1592z"/>
<path d="M8960 2240 l0 -1600 -1600 0 -1600 0 0 -320 0 -320 1920 0 1920 0 0
1920 0 1920 -320 0 -320 0 0 -1600z"/>
</g>
</svg>
